<svg xmlns="http://www.w3.org/2000/svg" version="1.1" xmlns:xlink="http://www.w3.org/1999/xlink" xmlns:svgjs="http://svgjs.com/svgjs" width="1440" height="161" preserveAspectRatio="none" viewBox="0 0 1440 161"><g mask="url(&quot;#SvgjsMask1684&quot;)" fill="none"><rect width="1440" height="161" x="0" y="0" fill="rgba(3, 7, 30, 1)"></rect><use xlink:href="#SvgjsG1692" transform="translate(0, 0)" fill="rgba(0, 48, 161, 1)"></use><use xlink:href="#SvgjsG1692" transform="translate(468.00000000000006, 0)" fill="rgba(0, 48, 161, 1)"></use><use xlink:href="#SvgjsG1692" transform="translate(936.0000000000001, 0)" fill="rgba(0, 48, 161, 1)"></use><use xlink:href="#SvgjsG1692" transform="translate(1404.0000000000002, 0)" fill="rgba(0, 48, 161, 1)"></use></g><defs><mask id="SvgjsMask1684"><rect width="1440" height="161" fill="#ffffff"></rect></mask><g id="SvgjsG1685"><path d="M15.233 9.431c0.295 0 0.569-0.239 0.61-0.532 0 0 0.056-0.411 0.056-0.899s-0.056-0.899-0.056-0.899c-0.041-0.292-0.315-0.531-0.61-0.53h-1.524c-0.295 0-0.602-0.188-0.681-0.418s-0.188-0.967 0.021-1.176l1.078-1.077c0.209-0.209 0.225-0.565 0.036-0.792l-1.268-1.268c-0.227-0.189-0.583-0.173-0.792 0.036l-1.078 1.077c-0.208 0.209-0.556 0.293-0.772 0.187s-0.822-0.552-0.821-0.847V0.767c0-0.295-0.239-0.569-0.531-0.61 0 0-0.411-0.057-0.9-0.056s-0.899 0.057-0.899 0.056c-0.293 0.04-0.532 0.315-0.532 0.61v1.524c0 0.295-0.188 0.601-0.418 0.681s-0.967 0.188-1.176-0.021l-1.078-1.078C3.689 1.665 3.333 1.649 3.107 1.837l-1.268 1.268c-0.189 0.227-0.173 0.583 0.036 0.792l1.077 1.078c0.209 0.209 0.293 0.556 0.187 0.772s-0.552 0.822-0.847 0.822H0.767c-0.295 0-0.569 0.239-0.61 0.531 0 0-0.057 0.411-0.056 0.899s0.057 0.899 0.056 0.9c0.04 0.293 0.315 0.532 0.61 0.532h1.525c0.295 0 0.601 0.188 0.681 0.417 0.079 0.23 0.188 0.967-0.02 1.176l-1.078 1.077C1.667 12.311 1.651 12.667 1.84 12.893l1.267 1.268c0.227 0.189 0.583 0.173 0.792-0.036l1.077-1.077c0.209-0.208 0.556-0.292 0.772-0.187s0.821 0.553 0.822 0.848v1.524c0 0.295 0.239 0.569 0.532 0.61 0 0 0.411 0.057 0.899 0.057s0.899-0.056 0.899-0.057c0.293-0.04 0.531-0.315 0.532-0.609v-1.524c0-0.295 0.188-0.602 0.418-0.681 0.23-0.079 0.967-0.188 1.176 0.021l1.077 1.077c0.209 0.209 0.565 0.225 0.792 0.036l1.268-1.267c0.189-0.227 0.173-0.583-0.036-0.792l-1.078-1.077c-0.209-0.209-0.293-0.557-0.186-0.773 0.106-0.216 0.552-0.822 0.847-0.822h1.525zM8 10.892c-1.597 0-2.891-1.294-2.891-2.892 0-1.596 1.295-2.891 2.891-2.891S10.892 6.404 10.892 8 9.597 10.892 8 10.892z"></path></g><g id="SvgjsG1688"><path d="M8.655 0C5.901 0 3.36 2.069 2.833 4.347 2.715 4.854 2.582 6.177 2.582 6.177L1.318 9.37A0.469 0.469 0 0 0 1.28 9.561a0.488 0.488 0 0 0 0.489 0.488h0.814v1.697c0 1.324 1.07 2.396 2.392 2.396h0.952V16h3.535v-0.829h1.44V16h1.503V10.847c1.413-1.111 2.322-2.838 2.322-4.774C14.726 2.718 12.01 0 8.655 0zM4.077 7.387a0.682 0.682 0 0 1-0.682-0.682c0-0.375 0.306-0.68 0.682-0.68a0.681 0.681 0 0 1 0.679 0.68c0 0.377-0.306 0.682-0.68 0.682z m5.385 4.46h1.44v0.779h-1.44v-0.779z m0-1.108h1.44v0.778h-1.44V10.739z m0 2.215h1.44v0.78h-1.44v-0.78z m0 1.109h1.44v0.78h-1.44V14.062z m0-4.431h1.448c-0.003 0.057-0.009 0.113-0.009 0.172v0.607h-1.44V9.632z m3.986-4.488a1.557 1.557 0 0 1-0.427 1.071c-0.045 0.592-0.42 1.091-0.942 1.316v0.005c-0.637 0.372-1.019 1.005-1.135 1.766H10.354v-1.765c0.004-0.55 0.177-0.902 0.539-1.119a1.907 1.907 0 0 0 0.356-0.26 1.229 1.229 0 0 1 0.659 0.556c0.032 0.053 0.088 0.083 0.144 0.082 0.027 0 0.055-0.007 0.08-0.021a0.163 0.163 0 0 0 0.064-0.224h-0.001a1.563 1.563 0 0 0-0.721-0.657c0.15-0.231 0.234-0.506 0.23-0.837 0-0.002 0.002-0.003 0.003-0.006 0-0.149-0.022-0.294-0.062-0.431a1.572 1.572 0 0 0 0.871-0.486 0.164 0.164 0 0 0-0.011-0.234 0.164 0.164 0 0 0-0.232 0.011 1.248 1.248 0 0 1-0.755 0.396c-0.24-0.444-0.686-0.76-1.209-0.818a1.235 1.235 0 0 1 0.353-0.724 0.166 0.166 0 0 0 0-0.233 0.166 0.166 0 0 0-0.234 0 1.572 1.572 0 0 0-0.45 0.937 1.244 1.244 0 0 1-1.088-1.234c0-0.09-0.075-0.165-0.163-0.165-0.093 0-0.166 0.075-0.167 0.165 0 0.107 0.01 0.21 0.031 0.31a1.24 1.24 0 0 1-1.235 0.229s-0.002 0-0.003-0.001a1.225 1.225 0 0 1-0.453-0.289c-0.063-0.064-0.168-0.064-0.233 0-0.065 0.064-0.065 0.168 0 0.233a1.59 1.59 0 0 0 0.452 0.316c-0.033 0.411-0.271 0.764-0.605 0.963a1.578 1.578 0 0 0-0.84-0.639 0.166 0.166 0 0 0-0.209 0.107c-0.024 0.087 0.02 0.179 0.108 0.207a1.247 1.247 0 0 1 0.63 0.455 1.221 1.221 0 0 1-0.32 0.042h-0.02a1.568 1.568 0 0 0-1.096 0.444 0.161 0.161 0 0 0-0.003 0.233 0.162 0.162 0 0 0 0.231 0.003 1.236 1.236 0 0 1 0.868-0.35h0.019c0.794 0 1.453-0.591 1.557-1.358 0.113 0.024 0.226 0.038 0.34 0.038A1.574 1.574 0 0 0 8.699 2.88a1.558 1.558 0 0 0 0.45 0.583 1.556 1.556 0 0 0-0.341 0.82 1.622 1.622 0 0 0-0.256-0.021 1.557 1.557 0 0 0-0.736 0.185c-0.08 0.043-0.111 0.142-0.068 0.224 0.03 0.055 0.088 0.087 0.147 0.087a0.144 0.144 0 0 0 0.075-0.02 1.25 1.25 0 0 1 0.583-0.146c0.087 0 0.173 0.01 0.256 0.027a1.576 1.576 0 0 0 0.428 0.92c0.033 0.034 0.076 0.051 0.118 0.051 0.04 0 0.082-0.015 0.115-0.046 0.067-0.063 0.069-0.167 0.005-0.232h-0.001a1.253 1.253 0 0 1-0.345-0.829c0-0.004 0.001-0.008 0-0.013v-0.018a1.237 1.237 0 0 1 0.299-0.81 1.57 1.57 0 0 0 0.701 0.166s0.001 0 0.003 0h0.003a1.244 1.244 0 0 1 1.241 1.24 1.566 1.566 0 0 0-0.401-0.052c-0.196 0-0.395 0.036-0.587 0.114a0.164 0.164 0 0 0-0.091 0.215c0.035 0.084 0.129 0.125 0.214 0.09a1.247 1.247 0 0 1 0.464-0.091c0.124 0 0.248 0.019 0.363 0.055a0.953 0.953 0 0 1-0.242 0.464 0.14 0.14 0 0 0-0.025 0.029c-0.094 0.092-0.207 0.177-0.346 0.262-0.477 0.278-0.706 0.784-0.701 1.403V9.301h-0.563V7.624c0-0.616-0.386-1.201-0.873-1.409-0.232-0.09-0.474-0.241-0.65-0.438a1.558 1.558 0 0 1-0.878 0.271 1.555 1.555 0 0 1-0.877-0.269 1.581 1.581 0 0 1-0.87 0.26c-0.883 0-1.596-0.715-1.597-1.597 0-0.659 0.398-1.224 0.969-1.467 0.154-0.703 0.777-1.229 1.527-1.23 0.04 0 0.076 0.003 0.113 0.006a1.567 1.567 0 0 1 1.295-0.684c0.266 0 0.516 0.066 0.736 0.185a1.558 1.558 0 0 1 1.925 0.158 1.553 1.553 0 0 1 0.365-0.044c0.633 0 1.18 0.381 1.424 0.926 0.642 0.195 1.11 0.79 1.11 1.496a1.576 1.576 0 0 1-0.054 0.408 1.561 1.561 0 0 1 0.321 0.948z"></path></g><g id="SvgjsG1690"><path d="M15.088 16c-0.331 0-0.646-0.076-0.927-0.204a2.26 2.26 0 0 0-0.957-0.216c-0.342 0-0.666 0.08-0.958 0.216A2.25 2.25 0 0 1 11.316 16c-0.331 0-0.646-0.076-0.926-0.204-0.294-0.136-0.616-0.216-0.958-0.216-0.342 0-0.669 0.08-0.958 0.216A2.25 2.25 0 0 1 7.545 16c-0.33 0-0.646-0.076-0.931-0.204a2.244 2.244 0 0 0-0.954-0.216c-0.342 0-0.669 0.08-0.957 0.216A2.246 2.246 0 0 1 3.776 16c-0.331 0-0.646-0.076-0.931-0.204a2.243 2.243 0 0 0-0.954-0.216c-0.342 0-0.669 0.08-0.957 0.216A2.267 2.267 0 0 1 0 16v-1.408c0.331 0 0.65-0.076 0.933-0.206a2.304 2.304 0 0 1 0.958-0.212c0.338 0 0.666 0.078 0.953 0.211a2.239 2.239 0 0 0 0.932 0.205 2.218 2.218 0 0 0 0.926-0.206 2.306 2.306 0 0 1 0.958-0.212c0.338 0 0.666 0.08 0.954 0.212a2.236 2.236 0 0 0 0.93 0.206c0.331 0 0.646-0.076 0.929-0.206 0.288-0.132 0.614-0.212 0.957-0.212s0.663 0.08 0.958 0.212a2.205 2.205 0 0 0 0.927 0.206c0.331 0 0.646-0.076 0.929-0.206 0.292-0.132 0.616-0.212 0.958-0.212 0.34 0 0.667 0.079 0.957 0.212a2.205 2.205 0 0 0 0.928 0.208v1.408zM4.27 9.094c0.702 0 1.274-0.578 1.273-1.289 0-0.71-0.571-1.283-1.273-1.284-0.7 0-1.271 0.573-1.271 1.284s0.573 1.288 1.272 1.288m0.18 4.451c-0.2 0.344-0.638 0.462-0.979 0.256-0.342-0.2-0.458-0.646-0.259-0.99L6.165 7.672a1.175 1.175 0 0 1 0.454-0.459l3.794-2.325L12.988 0.453C13.232 0.021 13.778-0.128 14.205 0.119c0.425 0.251 0.571 0.801 0.327 1.23L11.445 6.664a1.163 1.163 0 0 1-0.456 0.458L6.512 9.936 4.451 13.544z"></path></g><g id="SvgjsG1687"><path d="M9.232 8.281a0.793 0.793 0 0 0 1.012-0.494c0.144-0.421-0.076-0.877-0.492-1.023-0.415-0.146-0.867 0.076-1.011 0.496-0.141 0.417 0.076 0.876 0.491 1.021z"></path><path d="M15.745 3.046S13.058 2.72 7.478 2.72C3.362 2.72 0 3.046 0 3.046s1.394 0.621 1.152 2.545 2.001-0.241 2.838 1.492l3.758-1.152-0.246 2.535-1.588 0.393a0.805 0.805 0 0 0-0.357 0.19L2.07 12.453c-0.206 0.197-0.21 0.529-0.012 0.734 0.195 0.208 0.523 0.216 0.726 0.019l2.626-2.557 3.213-0.795-0.023 0.006 0.536-0.137 0.491 0.565a0.406 0.406 0 0 0 0.299 0.136l1.731 0.006c0.217 0 0.397-0.179 0.397-0.403 0-0.194-0.133-0.344-0.31-0.388L10.453 5.104 15.824 3.459c0.256-0.112 0.236-0.377-0.079-0.413z m-4.389 6.576c-0.394 0-1.05-0.003-1.249-0.003-0.188-0.216-0.933-1.066-0.933-1.066-0.01-0.016-0.029-0.019-0.039-0.029-0.189-0.223-0.488-0.338-0.787-0.266l-0.466 0.116 0.249-2.56 1.968-0.602 1.257 4.41z"></path></g><g id="SvgjsG1691"><path d="M10.596 3.917a0.64 0.64 0 0 0-0.639 0.641c0 0.354 0.287 0.64 0.639 0.64a0.639 0.639 0 0 0 0.639-0.64 0.639 0.639 0 0 0-0.639-0.641z m-0.151 5.25a0.642 0.642 0 0 0 0.643 0.641c0.352 0 0.638-0.286 0.637-0.64a0.639 0.639 0 0 0-0.637-0.641 0.641 0.641 0 0 0-0.642 0.641z m-4.678-5.945a0.641 0.641 0 0 0 0 1.282 0.64 0.64 0 0 0 0.642-0.64 0.641 0.641 0 0 0-0.642-0.642z"></path><path d="M8.659 0C5.904 0 3.363 2.068 2.835 4.347c-0.119 0.507-0.25 1.83-0.25 1.829L1.316 9.37A0.488 0.488 0 0 0 1.28 9.561a0.491 0.491 0 0 0 0.491 0.489h0.814v1.697c0 1.323 1.072 2.395 2.394 2.395h0.951V16H12.408V10.847c1.413-1.111 2.32-2.838 2.32-4.775C14.728 2.718 12.01 0 8.659 0z m-4.583 7.387c-0.372 0-0.675-0.304-0.675-0.679a0.677 0.677 0 0 1 0.675-0.677c0.375 0 0.68 0.303 0.68 0.677a0.68 0.68 0 0 1-0.68 0.679z m8.959-0.918l-0.631 0.632-0.77-0.543c-0.148 0.077-0.304 0.139-0.467 0.18l-0.142 0.838h0.294l0.079 0.448c0.031 0.008 0.062 0.013 0.092 0.024 0.079 0.029 0.152 0.067 0.22 0.11l0.355-0.25 0.292 0.291-0.262 0.371c0.056 0.1 0.101 0.206 0.125 0.318l0.429 0.074v0.412l-0.446 0.076c-0.009 0.032-0.013 0.063-0.024 0.094a1.147 1.147 0 0 1-0.112 0.223l0.251 0.353-0.292 0.291-0.369-0.262a1.149 1.149 0 0 1-0.318 0.126l-0.075 0.429H10.851l-0.074-0.448c-0.032-0.009-0.064-0.013-0.096-0.025a1.174 1.174 0 0 1-0.221-0.11l-0.356 0.252L9.815 10.08l0.262-0.37a1.151 1.151 0 0 1-0.125-0.319l-0.431-0.074v-0.411l0.45-0.077c0.008-0.032 0.013-0.063 0.025-0.094 0.029-0.079 0.066-0.152 0.109-0.22l-0.251-0.356 0.291-0.291 0.371 0.262a1.174 1.174 0 0 1 0.317-0.125l0.064-0.372h-0.776L9.96 6.704c-0.035-0.011-0.07-0.02-0.104-0.034a2.221 2.221 0 0 1-0.352-0.168l-0.744 0.524-0.63-0.632 0.542-0.767a2.184 2.184 0 0 1-0.181-0.469l-0.894-0.154V4.27l-0.449 0.078c-0.007 0.022-0.009 0.044-0.017 0.065a1.402 1.402 0 0 1-0.109 0.223l0.345 0.489-0.416 0.414-0.506-0.357a1.438 1.438 0 0 1-0.294 0.116l-0.102 0.586-0.584 0-0.106-0.611c-0.02-0.007-0.042-0.009-0.062-0.017a1.43 1.43 0 0 1-0.226-0.11l-0.49 0.345-0.414-0.415 0.359-0.508a1.485 1.485 0 0 1-0.112-0.291L3.824 4.176V3.589l0.608-0.105c0.007-0.022 0.012-0.043 0.02-0.063 0.029-0.08 0.068-0.154 0.109-0.225l-0.345-0.488 0.413-0.415 0.508 0.358a1.439 1.439 0 0 1 0.295-0.117l0.102-0.586h0.584L6.224 2.56c0.021 0.007 0.043 0.008 0.063 0.016 0.08 0.03 0.154 0.069 0.225 0.11l0.489-0.344 0.415 0.414-0.359 0.507a1.397 1.397 0 0 1 0.115 0.293l0.586 0.101v0.427l0.768-0.132c0.011-0.035 0.02-0.07 0.033-0.105 0.046-0.126 0.104-0.243 0.17-0.355l-0.528-0.74 0.634-0.633 0.77 0.544a2.192 2.192 0 0 1 0.468-0.181l0.151-0.894h0.894l0.162 0.928c0.035 0.01 0.069 0.02 0.104 0.033 0.124 0.046 0.241 0.104 0.352 0.168l0.743-0.523 0.629 0.631-0.542 0.77c0.077 0.148 0.138 0.304 0.18 0.466l0.895 0.154v0.894l-0.929 0.16c-0.011 0.035-0.02 0.07-0.032 0.104-0.046 0.125-0.104 0.242-0.17 0.353l0.525 0.743z"></path></g><g id="SvgjsG1686"><path d="M3.044 12.188V8.93c0-2.836 2.475-5.244 5.463-5.245 3.022-0.004 5.465 2.352 5.465 5.245v3.258h1.351V8.93C15.332 5.276 12.27 2.325 8.51 2.325 4.777 2.325 1.689 5.333 1.689 8.93v3.258h1.355z"></path><path d="M5.463 14.702l-1.781 0.006V9.593h1.785c0.921 2.372 0 5.111 0 5.111m6.049-5.109H13.298V14.702l-1.783 0.006c-0.921-2.373 0-5.113 0-5.113"></path></g><g id="SvgjsG1689"><path d="M0.436 7.836c0 4.161 3.373 7.533 7.534 7.534 4.16 0 7.533-3.373 7.533-7.534 0-2.169-0.918-4.121-2.384-5.496L11.204 4.385c0.922 0.864 1.499 2.092 1.499 3.452 0 2.61-2.123 4.733-4.733 4.733-2.61 0-4.733-2.123-4.733-4.733"></path><path d="M12.703 7.836c0 2.61-2.123 4.733-4.733 4.734-2.61 0-4.733-2.123-4.734-4.734 0-1.36 0.578-2.587 1.5-3.452l-1.916-2.044C1.354 3.715 0.436 5.668 0.436 7.836c0 4.161 3.373 7.533 7.534 7.533 4.161 0 7.533-3.373 7.533-7.533"></path><path d="M6.638 0H9.301v8.21H6.638z"></path></g><g id="SvgjsG1692"><use xlink:href="#SvgjsG1685" transform="translate(0, 0) scale(1.3)" fill="rgba(0, 48, 161, 1)"></use><use xlink:href="#SvgjsG1686" transform="translate(0, 46.800000000000004) scale(1.3)" fill="rgba(0, 48, 161, 1)"></use><use xlink:href="#SvgjsG1685" transform="translate(0, 93.60000000000001) scale(1.3)" fill="rgba(0, 48, 161, 1)"></use><use xlink:href="#SvgjsG1687" transform="translate(0, 140.4) scale(1.3)" fill="rgba(0, 48, 161, 1)"></use><use xlink:href="#SvgjsG1688" transform="translate(46.800000000000004, 0) scale(1.3)" fill="rgba(0, 48, 161, 1)"></use><use xlink:href="#SvgjsG1689" transform="translate(46.800000000000004, 46.800000000000004) scale(1.3)" fill="rgba(0, 48, 161, 1)"></use><use xlink:href="#SvgjsG1686" transform="translate(46.800000000000004, 93.60000000000001) scale(1.3)" fill="rgba(0, 48, 161, 1)"></use><use xlink:href="#SvgjsG1689" transform="translate(46.800000000000004, 140.4) scale(1.3)" fill="rgba(0, 48, 161, 1)"></use><use xlink:href="#SvgjsG1687" transform="translate(93.60000000000001, 0) scale(1.3)" fill="rgba(0, 48, 161, 1)"></use><use xlink:href="#SvgjsG1690" transform="translate(93.60000000000001, 46.800000000000004) scale(1.3)" fill="rgba(0, 48, 161, 1)"></use><use xlink:href="#SvgjsG1691" transform="translate(93.60000000000001, 93.60000000000001) scale(1.3)" fill="rgba(0, 48, 161, 1)"></use><use xlink:href="#SvgjsG1685" transform="translate(93.60000000000001, 140.4) scale(1.3)" fill="rgba(0, 48, 161, 1)"></use><use xlink:href="#SvgjsG1687" transform="translate(140.4, 0) scale(1.3)" fill="rgba(0, 48, 161, 1)"></use><use xlink:href="#SvgjsG1686" transform="translate(140.4, 46.800000000000004) scale(1.3)" fill="rgba(0, 48, 161, 1)"></use><use xlink:href="#SvgjsG1688" transform="translate(140.4, 93.60000000000001) scale(1.3)" fill="rgba(0, 48, 161, 1)"></use><use xlink:href="#SvgjsG1691" transform="translate(140.4, 140.4) scale(1.3)" fill="rgba(0, 48, 161, 1)"></use><use xlink:href="#SvgjsG1689" transform="translate(187.20000000000002, 0) scale(1.3)" fill="rgba(0, 48, 161, 1)"></use><use xlink:href="#SvgjsG1690" transform="translate(187.20000000000002, 46.800000000000004) scale(1.3)" fill="rgba(0, 48, 161, 1)"></use><use xlink:href="#SvgjsG1685" transform="translate(187.20000000000002, 93.60000000000001) scale(1.3)" fill="rgba(0, 48, 161, 1)"></use><use xlink:href="#SvgjsG1690" transform="translate(187.20000000000002, 140.4) scale(1.3)" fill="rgba(0, 48, 161, 1)"></use><use xlink:href="#SvgjsG1685" transform="translate(234.00000000000003, 0) scale(1.3)" fill="rgba(0, 48, 161, 1)"></use><use xlink:href="#SvgjsG1685" transform="translate(234.00000000000003, 46.800000000000004) scale(1.3)" fill="rgba(0, 48, 161, 1)"></use><use xlink:href="#SvgjsG1685" transform="translate(234.00000000000003, 93.60000000000001) scale(1.3)" fill="rgba(0, 48, 161, 1)"></use><use xlink:href="#SvgjsG1686" transform="translate(234.00000000000003, 140.4) scale(1.3)" fill="rgba(0, 48, 161, 1)"></use><use xlink:href="#SvgjsG1686" transform="translate(280.8, 0) scale(1.3)" fill="rgba(0, 48, 161, 1)"></use><use xlink:href="#SvgjsG1688" transform="translate(280.8, 46.800000000000004) scale(1.3)" fill="rgba(0, 48, 161, 1)"></use><use xlink:href="#SvgjsG1687" transform="translate(280.8, 93.60000000000001) scale(1.3)" fill="rgba(0, 48, 161, 1)"></use><use xlink:href="#SvgjsG1686" transform="translate(280.8, 140.4) scale(1.3)" fill="rgba(0, 48, 161, 1)"></use><use xlink:href="#SvgjsG1689" transform="translate(327.6, 0) scale(1.3)" fill="rgba(0, 48, 161, 1)"></use><use xlink:href="#SvgjsG1686" transform="translate(327.6, 46.800000000000004) scale(1.3)" fill="rgba(0, 48, 161, 1)"></use><use xlink:href="#SvgjsG1690" transform="translate(327.6, 93.60000000000001) scale(1.3)" fill="rgba(0, 48, 161, 1)"></use><use xlink:href="#SvgjsG1687" transform="translate(327.6, 140.4) scale(1.3)" fill="rgba(0, 48, 161, 1)"></use><use xlink:href="#SvgjsG1688" transform="translate(374.40000000000003, 0) scale(1.3)" fill="rgba(0, 48, 161, 1)"></use><use xlink:href="#SvgjsG1688" transform="translate(374.40000000000003, 46.800000000000004) scale(1.3)" fill="rgba(0, 48, 161, 1)"></use><use xlink:href="#SvgjsG1686" transform="translate(374.40000000000003, 93.60000000000001) scale(1.3)" fill="rgba(0, 48, 161, 1)"></use><use xlink:href="#SvgjsG1689" transform="translate(374.40000000000003, 140.4) scale(1.3)" fill="rgba(0, 48, 161, 1)"></use><use xlink:href="#SvgjsG1686" transform="translate(421.20000000000005, 0) scale(1.3)" fill="rgba(0, 48, 161, 1)"></use><use xlink:href="#SvgjsG1691" transform="translate(421.20000000000005, 46.800000000000004) scale(1.3)" fill="rgba(0, 48, 161, 1)"></use><use xlink:href="#SvgjsG1687" transform="translate(421.20000000000005, 93.60000000000001) scale(1.3)" fill="rgba(0, 48, 161, 1)"></use><use xlink:href="#SvgjsG1690" transform="translate(421.20000000000005, 140.4) scale(1.3)" fill="rgba(0, 48, 161, 1)"></use></g></defs></svg>