<svg xmlns="http://www.w3.org/2000/svg" version="1.1" xmlns:xlink="http://www.w3.org/1999/xlink" xmlns:svgjs="http://svgjs.com/svgjs" width="1440" height="191" preserveAspectRatio="none" viewBox="0 0 1440 191"><g mask="url(&quot;#SvgjsMask1016&quot;)" fill="none"><rect width="1440" height="191" x="0" y="0" fill="#0e2a47"></rect><path d="M-96.72 213.48L-96.72 213.48" stroke="#132e65" stroke-width="1.5"></path><path d="M-96.72 213.48L-95.41 368.78" stroke="#132e65" stroke-width="1.5"></path><path d="M-96.72 213.48L86.51 190.24" stroke="#132e65" stroke-width="1.5"></path><path d="M-96.72 213.48L92.18 355.55" stroke="#132e65" stroke-width="1.5"></path><path d="M-96.72 213.48L209.92 208.88" stroke="#132e65" stroke-width="1.5"></path><path d="M-96.72 213.48L198.53 403.26" stroke="#132e65" stroke-width="1.5"></path><path d="M-96.72 213.48L367.85 244.34" stroke="#132e65" stroke-width="1.5"></path><path d="M-95.41 368.78L-95.41 368.78" stroke="#132e65" stroke-width="1.5"></path><path d="M-95.41 368.78L92.18 355.55" stroke="#132e65" stroke-width="1.5"></path><path d="M-95.41 368.78L86.51 190.24" stroke="#132e65" stroke-width="1.5"></path><path d="M-95.41 368.78L198.53 403.26" stroke="#132e65" stroke-width="1.5"></path><path d="M-95.41 368.78L209.92 208.88" stroke="#132e65" stroke-width="1.5"></path><path d="M-95.41 368.78L343.48 375.47" stroke="#132e65" stroke-width="1.5"></path><path d="M86.51 190.24L86.51 190.24" stroke="#132e65" stroke-width="1.5"></path><path d="M86.51 190.24L209.92 208.88" stroke="#132e65" stroke-width="1.5"></path><path d="M86.51 190.24L92.18 355.55" stroke="#132e65" stroke-width="1.5"></path><path d="M86.51 190.24L198.53 403.26" stroke="#132e65" stroke-width="1.5"></path><path d="M92.18 355.55L92.18 355.55" stroke="#132e65" stroke-width="1.5"></path><path d="M92.18 355.55L198.53 403.26" stroke="#132e65" stroke-width="1.5"></path><path d="M92.18 355.55L209.92 208.88" stroke="#132e65" stroke-width="1.5"></path><path d="M209.92 208.88L209.92 208.88" stroke="#132e65" stroke-width="1.5"></path><path d="M209.92 208.88L367.85 244.34" stroke="#132e65" stroke-width="1.5"></path><path d="M209.92 208.88L198.53 403.26" stroke="#132e65" stroke-width="1.5"></path><path d="M209.92 208.88L343.48 375.47" stroke="#132e65" stroke-width="1.5"></path><path d="M198.53 403.26L198.53 403.26" stroke="#132e65" stroke-width="1.5"></path><path d="M198.53 403.26L343.48 375.47" stroke="#132e65" stroke-width="1.5"></path><path d="M367.85 244.34L367.85 244.34" stroke="#132e65" stroke-width="1.5"></path><path d="M367.85 244.34L343.48 375.47" stroke="#132e65" stroke-width="1.5"></path><path d="M367.85 244.34L500.11 379.57" stroke="#132e65" stroke-width="1.5"></path><path d="M367.85 244.34L198.53 403.26" stroke="#132e65" stroke-width="1.5"></path><path d="M367.85 244.34L642.32 205.03" stroke="#132e65" stroke-width="1.5"></path><path d="M343.48 375.47L343.48 375.47" stroke="#132e65" stroke-width="1.5"></path><path d="M343.48 375.47L500.11 379.57" stroke="#132e65" stroke-width="1.5"></path><path d="M500.11 379.57L500.11 379.57" stroke="#132e65" stroke-width="1.5"></path><path d="M500.11 379.57L659.3 378.57" stroke="#132e65" stroke-width="1.5"></path><path d="M500.11 379.57L642.32 205.03" stroke="#132e65" stroke-width="1.5"></path><path d="M500.11 379.57L198.53 403.26" stroke="#132e65" stroke-width="1.5"></path><path d="M642.32 205.03L642.32 205.03" stroke="#132e65" stroke-width="1.5"></path><path d="M642.32 205.03L789.55 226.52" stroke="#132e65" stroke-width="1.5"></path><path d="M642.32 205.03L659.3 378.57" stroke="#132e65" stroke-width="1.5"></path><path d="M642.32 205.03L807.95 366.36" stroke="#132e65" stroke-width="1.5"></path><path d="M659.3 378.57L659.3 378.57" stroke="#132e65" stroke-width="1.5"></path><path d="M659.3 378.57L807.95 366.36" stroke="#132e65" stroke-width="1.5"></path><path d="M835.07 51.38L835.07 51.38" stroke="#132e65" stroke-width="1.5"></path><path d="M835.07 51.38L789.55 226.52" stroke="#132e65" stroke-width="1.5"></path><path d="M835.07 51.38L946.37 196.13" stroke="#132e65" stroke-width="1.5"></path><path d="M835.07 51.38L994.47 -99.63" stroke="#132e65" stroke-width="1.5"></path><path d="M835.07 51.38L642.32 205.03" stroke="#132e65" stroke-width="1.5"></path><path d="M835.07 51.38L1094.56 -62.43" stroke="#132e65" stroke-width="1.5"></path><path d="M789.55 226.52L789.55 226.52" stroke="#132e65" stroke-width="1.5"></path><path d="M789.55 226.52L807.95 366.36" stroke="#132e65" stroke-width="1.5"></path><path d="M789.55 226.52L946.37 196.13" stroke="#132e65" stroke-width="1.5"></path><path d="M807.95 366.36L807.95 366.36" stroke="#132e65" stroke-width="1.5"></path><path d="M807.95 366.36L981.54 373.06" stroke="#132e65" stroke-width="1.5"></path><path d="M994.47 -99.63L994.47 -99.63" stroke="#132e65" stroke-width="1.5"></path><path d="M994.47 -99.63L1094.56 -62.43" stroke="#132e65" stroke-width="1.5"></path><path d="M994.47 -99.63L1134.87 54.09" stroke="#132e65" stroke-width="1.5"></path><path d="M994.47 -99.63L1286.94 -107.99" stroke="#132e65" stroke-width="1.5"></path><path d="M994.47 -99.63L946.37 196.13" stroke="#132e65" stroke-width="1.5"></path><path d="M946.37 196.13L946.37 196.13" stroke="#132e65" stroke-width="1.5"></path><path d="M946.37 196.13L981.54 373.06" stroke="#132e65" stroke-width="1.5"></path><path d="M946.37 196.13L1155.62 212.81" stroke="#132e65" stroke-width="1.5"></path><path d="M946.37 196.13L807.95 366.36" stroke="#132e65" stroke-width="1.5"></path><path d="M981.54 373.06L981.54 373.06" stroke="#132e65" stroke-width="1.5"></path><path d="M981.54 373.06L1152.45 375.05" stroke="#132e65" stroke-width="1.5"></path><path d="M1094.56 -62.43L1094.56 -62.43" stroke="#132e65" stroke-width="1.5"></path><path d="M1094.56 -62.43L1134.87 54.09" stroke="#132e65" stroke-width="1.5"></path><path d="M1094.56 -62.43L1286.94 -107.99" stroke="#132e65" stroke-width="1.5"></path><path d="M1094.56 -62.43L1278.26 76.18" stroke="#132e65" stroke-width="1.5"></path><path d="M1134.87 54.09L1134.87 54.09" stroke="#132e65" stroke-width="1.5"></path><path d="M1134.87 54.09L1278.26 76.18" stroke="#132e65" stroke-width="1.5"></path><path d="M1155.62 212.81L1155.62 212.81" stroke="#132e65" stroke-width="1.5"></path><path d="M1155.62 212.81L1263 240.55" stroke="#132e65" stroke-width="1.5"></path><path d="M1155.62 212.81L1134.87 54.09" stroke="#132e65" stroke-width="1.5"></path><path d="M1155.62 212.81L1152.45 375.05" stroke="#132e65" stroke-width="1.5"></path><path d="M1155.62 212.81L1275.64 349.48" stroke="#132e65" stroke-width="1.5"></path><path d="M1155.62 212.81L1278.26 76.18" stroke="#132e65" stroke-width="1.5"></path><path d="M1152.45 375.05L1152.45 375.05" stroke="#132e65" stroke-width="1.5"></path><path d="M1152.45 375.05L1275.64 349.48" stroke="#132e65" stroke-width="1.5"></path><path d="M1286.94 -107.99L1286.94 -107.99" stroke="#132e65" stroke-width="1.5"></path><path d="M1286.94 -107.99L1278.26 76.18" stroke="#132e65" stroke-width="1.5"></path><path d="M1286.94 -107.99L1134.87 54.09" stroke="#132e65" stroke-width="1.5"></path><path d="M1286.94 -107.99L1447.14 67.05" stroke="#132e65" stroke-width="1.5"></path><path d="M1278.26 76.18L1278.26 76.18" stroke="#132e65" stroke-width="1.5"></path><path d="M1278.26 76.18L1263 240.55" stroke="#132e65" stroke-width="1.5"></path><path d="M1278.26 76.18L1447.14 67.05" stroke="#132e65" stroke-width="1.5"></path><path d="M1263 240.55L1263 240.55" stroke="#132e65" stroke-width="1.5"></path><path d="M1263 240.55L1275.64 349.48" stroke="#132e65" stroke-width="1.5"></path><path d="M1263 240.55L1152.45 375.05" stroke="#132e65" stroke-width="1.5"></path><path d="M1275.64 349.48L1275.64 349.48" stroke="#132e65" stroke-width="1.5"></path><path d="M1275.64 349.48L1426.81 402.81" stroke="#132e65" stroke-width="1.5"></path><path d="M1447.14 67.05L1447.14 67.05" stroke="#132e65" stroke-width="1.5"></path><path d="M1447.14 67.05L1445.76 193.39" stroke="#132e65" stroke-width="1.5"></path><path d="M1447.14 67.05L1587.6 46.62" stroke="#132e65" stroke-width="1.5"></path><path d="M1445.76 193.39L1445.76 193.39" stroke="#132e65" stroke-width="1.5"></path><path d="M1445.76 193.39L1588.81 249.73" stroke="#132e65" stroke-width="1.5"></path><path d="M1445.76 193.39L1263 240.55" stroke="#132e65" stroke-width="1.5"></path><path d="M1445.76 193.39L1587.6 46.62" stroke="#132e65" stroke-width="1.5"></path><path d="M1445.76 193.39L1278.26 76.18" stroke="#132e65" stroke-width="1.5"></path><path d="M1445.76 193.39L1426.81 402.81" stroke="#132e65" stroke-width="1.5"></path><path d="M1426.81 402.81L1426.81 402.81" stroke="#132e65" stroke-width="1.5"></path><path d="M1426.81 402.81L1585.41 411.64" stroke="#132e65" stroke-width="1.5"></path><path d="M1426.81 402.81L1588.81 249.73" stroke="#132e65" stroke-width="1.5"></path><path d="M1426.81 402.81L1263 240.55" stroke="#132e65" stroke-width="1.5"></path><path d="M1537.88 -81.69L1537.88 -81.69" stroke="#132e65" stroke-width="1.5"></path><path d="M1537.88 -81.69L1587.6 46.62" stroke="#132e65" stroke-width="1.5"></path><path d="M1537.88 -81.69L1447.14 67.05" stroke="#132e65" stroke-width="1.5"></path><path d="M1537.88 -81.69L1286.94 -107.99" stroke="#132e65" stroke-width="1.5"></path><path d="M1537.88 -81.69L1445.76 193.39" stroke="#132e65" stroke-width="1.5"></path><path d="M1537.88 -81.69L1278.26 76.18" stroke="#132e65" stroke-width="1.5"></path><path d="M1587.6 46.62L1587.6 46.62" stroke="#132e65" stroke-width="1.5"></path><path d="M1587.6 46.62L1588.81 249.73" stroke="#132e65" stroke-width="1.5"></path><path d="M1588.81 249.73L1588.81 249.73" stroke="#132e65" stroke-width="1.5"></path><path d="M1588.81 249.73L1585.41 411.64" stroke="#132e65" stroke-width="1.5"></path><path d="M1585.41 411.64L1585.41 411.64" stroke="#132e65" stroke-width="1.5"></path><path d="M1585.41 411.64L1445.76 193.39" stroke="#132e65" stroke-width="1.5"></path><path d="M1585.41 411.64L1275.64 349.48" stroke="#132e65" stroke-width="1.5"></path><circle r="5" cx="-96.72" cy="213.48" fill="#132e65"></circle><circle r="5" cx="-95.41" cy="368.78" fill="#132e65"></circle><circle r="5" cx="86.51" cy="190.24" fill="#132e65"></circle><circle r="5" cx="92.18" cy="355.55" fill="#132e65"></circle><circle r="5" cx="209.92" cy="208.88" fill="#132e65"></circle><circle r="5" cx="198.53" cy="403.26" fill="#132e65"></circle><circle r="5" cx="367.85" cy="244.34" fill="#132e65"></circle><circle r="5" cx="343.48" cy="375.47" fill="#132e65"></circle><circle r="5" cx="500.11" cy="379.57" fill="#132e65"></circle><circle r="5" cx="642.32" cy="205.03" fill="#132e65"></circle><circle r="5" cx="659.3" cy="378.57" fill="#132e65"></circle><circle r="5" cx="835.07" cy="51.38" fill="#132e65"></circle><circle r="5" cx="789.55" cy="226.52" fill="#132e65"></circle><circle r="5" cx="807.95" cy="366.36" fill="#132e65"></circle><circle r="5" cx="994.47" cy="-99.63" fill="#132e65"></circle><circle r="5" cx="946.37" cy="196.13" fill="#132e65"></circle><circle r="5" cx="981.54" cy="373.06" fill="#132e65"></circle><circle r="5" cx="1094.56" cy="-62.43" fill="#132e65"></circle><circle r="5" cx="1134.87" cy="54.09" fill="#132e65"></circle><circle r="5" cx="1155.62" cy="212.81" fill="#132e65"></circle><circle r="5" cx="1152.45" cy="375.05" fill="#132e65"></circle><circle r="5" cx="1286.94" cy="-107.99" fill="#132e65"></circle><circle r="5" cx="1278.26" cy="76.18" fill="#132e65"></circle><circle r="5" cx="1263" cy="240.55" fill="#132e65"></circle><circle r="5" cx="1275.64" cy="349.48" fill="#132e65"></circle><circle r="5" cx="1447.14" cy="67.05" fill="#132e65"></circle><circle r="5" cx="1445.76" cy="193.39" fill="#132e65"></circle><circle r="5" cx="1426.81" cy="402.81" fill="#132e65"></circle><circle r="5" cx="1537.88" cy="-81.69" fill="#132e65"></circle><circle r="5" cx="1587.6" cy="46.62" fill="#132e65"></circle><circle r="5" cx="1588.81" cy="249.73" fill="#132e65"></circle><circle r="5" cx="1585.41" cy="411.64" fill="#132e65"></circle><path d="M348.33 388.16L348.33 388.16" stroke="hsl(228.5, 77.2%, 51.5%)" stroke-width="1.5"></path><path d="M348.33 388.16L256.83 354.67" stroke="hsl(228.5, 77.2%, 51.5%)" stroke-width="1.5"></path><path d="M348.33 388.16L495.03 377.53" stroke="hsl(228.5, 77.2%, 51.5%)" stroke-width="1.5"></path><path d="M348.33 388.16L210.99 246.75" stroke="hsl(228.5, 77.2%, 51.5%)" stroke-width="1.5"></path><path d="M348.33 388.16L411.79 189.5" stroke="hsl(228.5, 77.2%, 51.5%)" stroke-width="1.5"></path><path d="M348.33 388.16L521.73 199.19" stroke="hsl(228.5, 77.2%, 51.5%)" stroke-width="1.5"></path><path d="M495.03 377.53L495.03 377.53" stroke="hsl(228.5, 77.2%, 51.5%)" stroke-width="1.5"></path><path d="M495.03 377.53L664.58 382.45" stroke="hsl(228.5, 77.2%, 51.5%)" stroke-width="1.5"></path><path d="M495.03 377.53L521.73 199.19" stroke="hsl(228.5, 77.2%, 51.5%)" stroke-width="1.5"></path><path d="M495.03 377.53L411.79 189.5" stroke="hsl(228.5, 77.2%, 51.5%)" stroke-width="1.5"></path><path d="M837.7 367.43L837.7 367.43" stroke="hsl(228.5, 77.2%, 51.5%)" stroke-width="1.5"></path><path d="M837.7 367.43L791.28 233.19" stroke="hsl(228.5, 77.2%, 51.5%)" stroke-width="1.5"></path><path d="M944.58 92.29L944.58 92.29" stroke="hsl(228.5, 77.2%, 51.5%)" stroke-width="1.5"></path><path d="M944.58 92.29L948.83 209.58" stroke="hsl(228.5, 77.2%, 51.5%)" stroke-width="1.5"></path><path d="M944.58 92.29L791.28 233.19" stroke="hsl(228.5, 77.2%, 51.5%)" stroke-width="1.5"></path><path d="M944.58 92.29L1136.89 243.69" stroke="hsl(228.5, 77.2%, 51.5%)" stroke-width="1.5"></path><path d="M944.58 92.29L1006.12 365.82" stroke="hsl(228.5, 77.2%, 51.5%)" stroke-width="1.5"></path><path d="M944.58 92.29L1155.87 -97.55" stroke="hsl(228.5, 77.2%, 51.5%)" stroke-width="1.5"></path><path d="M1309.04 389.51L1309.04 389.51" stroke="hsl(228.5, 77.2%, 51.5%)" stroke-width="1.5"></path><path d="M1309.04 389.51L1434.34 378.56" stroke="hsl(228.5, 77.2%, 51.5%)" stroke-width="1.5"></path><path d="M1309.04 389.51L1402.58 261.61" stroke="hsl(228.5, 77.2%, 51.5%)" stroke-width="1.5"></path><path d="M1309.04 389.51L1133.05 401.6" stroke="hsl(228.5, 77.2%, 51.5%)" stroke-width="1.5"></path><path d="M1309.04 389.51L1305.79 190.24" stroke="hsl(228.5, 77.2%, 51.5%)" stroke-width="1.5"></path><path d="M1309.04 389.51L1136.89 243.69" stroke="hsl(228.5, 77.2%, 51.5%)" stroke-width="1.5"></path><path d="M-44.91 231.94L-44.91 231.94" stroke="hsl(228.5, 77.2%, 51.5%)" stroke-width="1.5"></path><path d="M-44.91 231.94L43.38 210.7" stroke="hsl(228.5, 77.2%, 51.5%)" stroke-width="1.5"></path><path d="M-44.91 231.94L-37.72 393.52" stroke="hsl(228.5, 77.2%, 51.5%)" stroke-width="1.5"></path><path d="M-44.91 231.94L77.85 341.7" stroke="hsl(228.5, 77.2%, 51.5%)" stroke-width="1.5"></path><path d="M-44.91 231.94L210.99 246.75" stroke="hsl(228.5, 77.2%, 51.5%)" stroke-width="1.5"></path><path d="M-37.72 393.52L-37.72 393.52" stroke="hsl(228.5, 77.2%, 51.5%)" stroke-width="1.5"></path><path d="M-37.72 393.52L77.85 341.7" stroke="hsl(228.5, 77.2%, 51.5%)" stroke-width="1.5"></path><path d="M43.38 210.7L43.38 210.7" stroke="hsl(228.5, 77.2%, 51.5%)" stroke-width="1.5"></path><path d="M43.38 210.7L77.85 341.7" stroke="hsl(228.5, 77.2%, 51.5%)" stroke-width="1.5"></path><path d="M43.38 210.7L210.99 246.75" stroke="hsl(228.5, 77.2%, 51.5%)" stroke-width="1.5"></path><path d="M77.85 341.7L77.85 341.7" stroke="hsl(228.5, 77.2%, 51.5%)" stroke-width="1.5"></path><path d="M210.99 246.75L210.99 246.75" stroke="hsl(228.5, 77.2%, 51.5%)" stroke-width="1.5"></path><path d="M210.99 246.75L256.83 354.67" stroke="hsl(228.5, 77.2%, 51.5%)" stroke-width="1.5"></path><path d="M210.99 246.75L77.85 341.7" stroke="hsl(228.5, 77.2%, 51.5%)" stroke-width="1.5"></path><path d="M210.99 246.75L411.79 189.5" stroke="hsl(228.5, 77.2%, 51.5%)" stroke-width="1.5"></path><path d="M256.83 354.67L256.83 354.67" stroke="hsl(228.5, 77.2%, 51.5%)" stroke-width="1.5"></path><path d="M256.83 354.67L77.85 341.7" stroke="hsl(228.5, 77.2%, 51.5%)" stroke-width="1.5"></path><path d="M256.83 354.67L411.79 189.5" stroke="hsl(228.5, 77.2%, 51.5%)" stroke-width="1.5"></path><path d="M256.83 354.67L495.03 377.53" stroke="hsl(228.5, 77.2%, 51.5%)" stroke-width="1.5"></path><path d="M256.83 354.67L43.38 210.7" stroke="hsl(228.5, 77.2%, 51.5%)" stroke-width="1.5"></path><path d="M411.79 189.5L411.79 189.5" stroke="hsl(228.5, 77.2%, 51.5%)" stroke-width="1.5"></path><path d="M411.79 189.5L521.73 199.19" stroke="hsl(228.5, 77.2%, 51.5%)" stroke-width="1.5"></path><path d="M521.73 199.19L521.73 199.19" stroke="hsl(228.5, 77.2%, 51.5%)" stroke-width="1.5"></path><path d="M521.73 199.19L692.55 257.9" stroke="hsl(228.5, 77.2%, 51.5%)" stroke-width="1.5"></path><path d="M521.73 199.19L664.58 382.45" stroke="hsl(228.5, 77.2%, 51.5%)" stroke-width="1.5"></path><path d="M692.55 257.9L692.55 257.9" stroke="hsl(228.5, 77.2%, 51.5%)" stroke-width="1.5"></path><path d="M692.55 257.9L791.28 233.19" stroke="hsl(228.5, 77.2%, 51.5%)" stroke-width="1.5"></path><path d="M692.55 257.9L664.58 382.45" stroke="hsl(228.5, 77.2%, 51.5%)" stroke-width="1.5"></path><path d="M692.55 257.9L837.7 367.43" stroke="hsl(228.5, 77.2%, 51.5%)" stroke-width="1.5"></path><path d="M692.55 257.9L495.03 377.53" stroke="hsl(228.5, 77.2%, 51.5%)" stroke-width="1.5"></path><path d="M692.55 257.9L948.83 209.58" stroke="hsl(228.5, 77.2%, 51.5%)" stroke-width="1.5"></path><path d="M664.58 382.45L664.58 382.45" stroke="hsl(228.5, 77.2%, 51.5%)" stroke-width="1.5"></path><path d="M791.28 233.19L791.28 233.19" stroke="hsl(228.5, 77.2%, 51.5%)" stroke-width="1.5"></path><path d="M791.28 233.19L948.83 209.58" stroke="hsl(228.5, 77.2%, 51.5%)" stroke-width="1.5"></path><path d="M791.28 233.19L664.58 382.45" stroke="hsl(228.5, 77.2%, 51.5%)" stroke-width="1.5"></path><path d="M791.28 233.19L1006.12 365.82" stroke="hsl(228.5, 77.2%, 51.5%)" stroke-width="1.5"></path><path d="M948.83 209.58L948.83 209.58" stroke="hsl(228.5, 77.2%, 51.5%)" stroke-width="1.5"></path><path d="M948.83 209.58L1006.12 365.82" stroke="hsl(228.5, 77.2%, 51.5%)" stroke-width="1.5"></path><path d="M948.83 209.58L1136.89 243.69" stroke="hsl(228.5, 77.2%, 51.5%)" stroke-width="1.5"></path><path d="M948.83 209.58L837.7 367.43" stroke="hsl(228.5, 77.2%, 51.5%)" stroke-width="1.5"></path><path d="M1006.12 365.82L1006.12 365.82" stroke="hsl(228.5, 77.2%, 51.5%)" stroke-width="1.5"></path><path d="M1006.12 365.82L1133.05 401.6" stroke="hsl(228.5, 77.2%, 51.5%)" stroke-width="1.5"></path><path d="M1155.87 -97.55L1155.87 -97.55" stroke="hsl(228.5, 77.2%, 51.5%)" stroke-width="1.5"></path><path d="M1155.87 -97.55L1300.87 -93.36" stroke="hsl(228.5, 77.2%, 51.5%)" stroke-width="1.5"></path><path d="M1155.87 -97.55L1306.57 59.72" stroke="hsl(228.5, 77.2%, 51.5%)" stroke-width="1.5"></path><path d="M1155.87 -97.55L1390.2 40.47" stroke="hsl(228.5, 77.2%, 51.5%)" stroke-width="1.5"></path><path d="M1136.89 243.69L1136.89 243.69" stroke="hsl(228.5, 77.2%, 51.5%)" stroke-width="1.5"></path><path d="M1136.89 243.69L1133.05 401.6" stroke="hsl(228.5, 77.2%, 51.5%)" stroke-width="1.5"></path><path d="M1136.89 243.69L1305.79 190.24" stroke="hsl(228.5, 77.2%, 51.5%)" stroke-width="1.5"></path><path d="M1136.89 243.69L1006.12 365.82" stroke="hsl(228.5, 77.2%, 51.5%)" stroke-width="1.5"></path><path d="M1133.05 401.6L1133.05 401.6" stroke="hsl(228.5, 77.2%, 51.5%)" stroke-width="1.5"></path><path d="M1300.87 -93.36L1300.87 -93.36" stroke="hsl(228.5, 77.2%, 51.5%)" stroke-width="1.5"></path><path d="M1300.87 -93.36L1435.45 -91.56" stroke="hsl(228.5, 77.2%, 51.5%)" stroke-width="1.5"></path><path d="M1300.87 -93.36L1306.57 59.72" stroke="hsl(228.5, 77.2%, 51.5%)" stroke-width="1.5"></path><path d="M1300.87 -93.36L1390.2 40.47" stroke="hsl(228.5, 77.2%, 51.5%)" stroke-width="1.5"></path><path d="M1300.87 -93.36L1550.69 -55.28" stroke="hsl(228.5, 77.2%, 51.5%)" stroke-width="1.5"></path><path d="M1306.57 59.72L1306.57 59.72" stroke="hsl(228.5, 77.2%, 51.5%)" stroke-width="1.5"></path><path d="M1306.57 59.72L1390.2 40.47" stroke="hsl(228.5, 77.2%, 51.5%)" stroke-width="1.5"></path><path d="M1306.57 59.72L1305.79 190.24" stroke="hsl(228.5, 77.2%, 51.5%)" stroke-width="1.5"></path><path d="M1306.57 59.72L1435.45 -91.56" stroke="hsl(228.5, 77.2%, 51.5%)" stroke-width="1.5"></path><path d="M1305.79 190.24L1305.79 190.24" stroke="hsl(228.5, 77.2%, 51.5%)" stroke-width="1.5"></path><path d="M1305.79 190.24L1402.58 261.61" stroke="hsl(228.5, 77.2%, 51.5%)" stroke-width="1.5"></path><path d="M1305.79 190.24L1390.2 40.47" stroke="hsl(228.5, 77.2%, 51.5%)" stroke-width="1.5"></path><path d="M1435.45 -91.56L1435.45 -91.56" stroke="hsl(228.5, 77.2%, 51.5%)" stroke-width="1.5"></path><path d="M1435.45 -91.56L1550.69 -55.28" stroke="hsl(228.5, 77.2%, 51.5%)" stroke-width="1.5"></path><path d="M1435.45 -91.56L1390.2 40.47" stroke="hsl(228.5, 77.2%, 51.5%)" stroke-width="1.5"></path><path d="M1390.2 40.47L1390.2 40.47" stroke="hsl(228.5, 77.2%, 51.5%)" stroke-width="1.5"></path><path d="M1390.2 40.47L1548.44 109.27" stroke="hsl(228.5, 77.2%, 51.5%)" stroke-width="1.5"></path><path d="M1402.58 261.61L1402.58 261.61" stroke="hsl(228.5, 77.2%, 51.5%)" stroke-width="1.5"></path><path d="M1402.58 261.61L1434.34 378.56" stroke="hsl(228.5, 77.2%, 51.5%)" stroke-width="1.5"></path><path d="M1402.58 261.61L1551.39 245.93" stroke="hsl(228.5, 77.2%, 51.5%)" stroke-width="1.5"></path><path d="M1434.34 378.56L1434.34 378.56" stroke="hsl(228.5, 77.2%, 51.5%)" stroke-width="1.5"></path><path d="M1434.34 378.56L1575.73 392.03" stroke="hsl(228.5, 77.2%, 51.5%)" stroke-width="1.5"></path><path d="M1550.69 -55.28L1550.69 -55.28" stroke="hsl(228.5, 77.2%, 51.5%)" stroke-width="1.5"></path><path d="M1550.69 -55.28L1548.44 109.27" stroke="hsl(228.5, 77.2%, 51.5%)" stroke-width="1.5"></path><path d="M1550.69 -55.28L1390.2 40.47" stroke="hsl(228.5, 77.2%, 51.5%)" stroke-width="1.5"></path><path d="M1548.44 109.27L1548.44 109.27" stroke="hsl(228.5, 77.2%, 51.5%)" stroke-width="1.5"></path><path d="M1548.44 109.27L1551.39 245.93" stroke="hsl(228.5, 77.2%, 51.5%)" stroke-width="1.5"></path><path d="M1548.44 109.27L1402.58 261.61" stroke="hsl(228.5, 77.2%, 51.5%)" stroke-width="1.5"></path><path d="M1548.44 109.27L1435.45 -91.56" stroke="hsl(228.5, 77.2%, 51.5%)" stroke-width="1.5"></path><path d="M1551.39 245.93L1551.39 245.93" stroke="hsl(228.5, 77.2%, 51.5%)" stroke-width="1.5"></path><path d="M1551.39 245.93L1575.73 392.03" stroke="hsl(228.5, 77.2%, 51.5%)" stroke-width="1.5"></path><path d="M1551.39 245.93L1434.34 378.56" stroke="hsl(228.5, 77.2%, 51.5%)" stroke-width="1.5"></path><path d="M1551.39 245.93L1305.79 190.24" stroke="hsl(228.5, 77.2%, 51.5%)" stroke-width="1.5"></path><path d="M1575.73 392.03L1575.73 392.03" stroke="hsl(228.5, 77.2%, 51.5%)" stroke-width="1.5"></path><path d="M1575.73 392.03L1402.58 261.61" stroke="hsl(228.5, 77.2%, 51.5%)" stroke-width="1.5"></path><path d="M1575.73 392.03L1309.04 389.51" stroke="hsl(228.5, 77.2%, 51.5%)" stroke-width="1.5"></path><circle r="25" cx="348.33" cy="388.16" fill="url(#SvgjsRadialGradient1017)"></circle><circle r="25" cx="495.03" cy="377.53" fill="url(#SvgjsRadialGradient1017)"></circle><circle r="25" cx="837.7" cy="367.43" fill="url(#SvgjsRadialGradient1017)"></circle><circle r="25" cx="944.58" cy="92.29" fill="url(#SvgjsRadialGradient1017)"></circle><circle r="25" cx="1309.04" cy="389.51" fill="url(#SvgjsRadialGradient1017)"></circle><circle r="5" cx="-44.91" cy="231.94" fill="#8b9ad9"></circle><circle r="5" cx="-37.72" cy="393.52" fill="#8b9ad9"></circle><circle r="5" cx="43.38" cy="210.7" fill="#8b9ad9"></circle><circle r="5" cx="77.85" cy="341.7" fill="#8b9ad9"></circle><circle r="5" cx="210.99" cy="246.75" fill="#8b9ad9"></circle><circle r="5" cx="256.83" cy="354.67" fill="#8b9ad9"></circle><circle r="5" cx="411.79" cy="189.5" fill="#8b9ad9"></circle><circle r="5" cx="521.73" cy="199.19" fill="#8b9ad9"></circle><circle r="5" cx="692.55" cy="257.9" fill="#8b9ad9"></circle><circle r="5" cx="664.58" cy="382.45" fill="#8b9ad9"></circle><circle r="5" cx="791.28" cy="233.19" fill="#8b9ad9"></circle><circle r="5" cx="948.83" cy="209.58" fill="#8b9ad9"></circle><circle r="5" cx="1006.12" cy="365.82" fill="#8b9ad9"></circle><circle r="5" cx="1155.87" cy="-97.55" fill="#8b9ad9"></circle><circle r="5" cx="1136.89" cy="243.69" fill="#8b9ad9"></circle><circle r="5" cx="1133.05" cy="401.6" fill="#8b9ad9"></circle><circle r="5" cx="1300.87" cy="-93.36" fill="#8b9ad9"></circle><circle r="5" cx="1306.57" cy="59.72" fill="#8b9ad9"></circle><circle r="5" cx="1305.79" cy="190.24" fill="#8b9ad9"></circle><circle r="5" cx="1435.45" cy="-91.56" fill="#8b9ad9"></circle><circle r="5" cx="1390.2" cy="40.47" fill="#8b9ad9"></circle><circle r="5" cx="1402.58" cy="261.61" fill="#8b9ad9"></circle><circle r="5" cx="1434.34" cy="378.56" fill="#8b9ad9"></circle><circle r="5" cx="1550.69" cy="-55.28" fill="#8b9ad9"></circle><circle r="5" cx="1548.44" cy="109.27" fill="#8b9ad9"></circle><circle r="5" cx="1551.39" cy="245.93" fill="#8b9ad9"></circle><circle r="5" cx="1575.73" cy="392.03" fill="#8b9ad9"></circle></g><defs><mask id="SvgjsMask1016"><rect width="1440" height="191" fill="#ffffff"></rect></mask><radialGradient id="SvgjsRadialGradient1017"><stop stop-color="#ffffff" offset="0.1"></stop><stop stop-color="#1735b3" offset="0.2"></stop><stop stop-color="rgba(23, 53, 179, 0)" offset="1"></stop></radialGradient></defs></svg>